<svg width="25" height="25" viewBox="0 0 25 25" fill="none" xmlns="http://www.w3.org/2000/svg">
<g clip-path="url(#clip0_1552_22366)">
<path d="M23.4933 12.1103C23.4768 13.9993 23.0475 15.8618 22.2353 17.5673" stroke="#000001" stroke-linecap="round" stroke-linejoin="round"/>
<path d="M12.4433 23.1603C10.9922 23.1603 9.55527 22.8745 8.21462 22.3192C6.87397 21.7639 5.65583 20.9499 4.62974 19.9238C2.55747 17.8516 1.39327 15.0409 1.39327 12.1103" stroke="#000001" stroke-linecap="round" stroke-linejoin="round"/>
<path d="M15.8433 15.5103L12.4433 11.2603H7.34327" stroke="#000001" stroke-linecap="round" stroke-linejoin="round"/>
<path d="M20.9433 22.3103C22.3516 22.3103 23.4933 21.1686 23.4933 19.7603C23.4933 18.352 22.3516 17.2103 20.9433 17.2103C19.5349 17.2103 18.3933 18.352 18.3933 19.7603C18.3933 21.1686 19.5349 22.3103 20.9433 22.3103Z" stroke="#000001" stroke-linecap="round" stroke-linejoin="round"/>
<path d="M2.10727 8.0303C2.47776 7.10441 2.97556 6.2347 3.58627 5.4463" stroke="#000001" stroke-linecap="round" stroke-linejoin="round"/>
<path d="M6.86727 2.52231C7.82532 1.9691 8.8633 1.56767 9.94427 1.33231" stroke="#000001" stroke-linecap="round" stroke-linejoin="round"/>
<path d="M22.7793 8.0303C22.4088 7.10441 21.911 6.2347 21.3003 5.4463" stroke="#000001" stroke-linecap="round" stroke-linejoin="round"/>
<path d="M18.0193 2.52231C17.0612 1.9691 16.0232 1.56767 14.9423 1.33231" stroke="#000001" stroke-linecap="round" stroke-linejoin="round"/>
</g>
<defs>
<clipPath id="clip0_1552_22366">
<rect width="23.8" height="23.8" fill="white" transform="translate(0.543274 0.346313)"/>
</clipPath>
</defs>
</svg>
