<svg>
    <symbol
        id="home"
        width="20"
        height="20"
        viewBox="0 0 25 24"
        fill="none"
        xmlns="http://www.w3.org/2000/svg"
        >
        <g clip-path="url(#clip0_1552_20787)">
            <path
            d="M23.8933 11.8442C23.8949 11.6083 23.8473 11.3746 23.7537 11.158C23.66 10.9414 23.5223 10.7467 23.3493 10.5862L12.8433 0.89624L2.33728 10.5862C2.16426 10.7467 2.02654 10.9414 1.93289 11.158C1.83923 11.3746 1.79169 11.6083 1.79328 11.8442V21.2962C1.79328 21.7471 1.97239 22.1795 2.2912 22.4983C2.61001 22.8171 3.04241 22.9962 3.49328 22.9962H22.1933C22.6442 22.9962 23.0766 22.8171 23.3954 22.4983C23.7142 22.1795 23.8933 21.7471 23.8933 21.2962V11.8442Z"
            stroke="red"
            stroke-linecap="round"
            stroke-linejoin="round"
            />
        </g>
        <defs>
            <clipPath id="clip0_1552_20787">
            <rect
                width="23.8"
                height="23.8"
                fill="white"
                transform="translate(0.943268 0.0462646)"
            />
            </clipPath>
        </defs>
    </symbol>
</svg>

