<svg width="24" height="25" viewBox="0 0 24 25" fill="none" xmlns="http://www.w3.org/2000/svg">
<g clip-path="url(#clip0_1552_20922)">
<path d="M16.2933 18.0962V21.4962C16.2933 21.9471 16.1142 22.3795 15.7954 22.6983C15.4765 23.0171 15.0441 23.1962 14.5933 23.1962H2.69328C2.24241 23.1962 1.81001 23.0171 1.4912 22.6983C1.17239 22.3795 0.993279 21.9471 0.993279 21.4962V2.79619C0.993279 2.34532 1.17239 1.91292 1.4912 1.59411C1.81001 1.2753 2.24241 1.09619 2.69328 1.09619H14.5933C15.0441 1.09619 15.4765 1.2753 15.7954 1.59411C16.1142 1.91292 16.2933 2.34532 16.2933 2.79619V6.19619" stroke="#000001" stroke-linecap="round" stroke-linejoin="round"/>
<path d="M11.1933 12.1462H23.0933" stroke="#000001" stroke-linecap="round" stroke-linejoin="round"/>
<path d="M19.6933 8.74622L23.0933 12.1462L19.6933 15.5462" stroke="#000001" stroke-linecap="round" stroke-linejoin="round"/>
</g>
<defs>
<clipPath id="clip0_1552_20922">
<rect width="23.8" height="23.8" fill="white" transform="translate(0.14328 0.246216)"/>
</clipPath>
</defs>
</svg>
