<svg width="24" height="25" viewBox="0 0 24 25" fill="none" xmlns="http://www.w3.org/2000/svg">
<g clip-path="url(#clip0_1552_23900)">
<path d="M22.4571 9.91124C22.6826 9.91124 22.8988 9.82169 23.0582 9.66228C23.2176 9.50288 23.3071 9.28668 23.3071 9.06124C23.3071 8.83581 23.2176 8.61961 23.0582 8.4602C22.8988 8.3008 22.6826 8.21124 22.4571 8.21124L3.21312 1.59824C2.91221 1.49522 2.58844 1.47868 2.2786 1.5505C1.96876 1.62232 1.68528 1.77961 1.46038 2.00451C1.23548 2.22941 1.07819 2.51289 1.00637 2.82273C0.934552 3.13257 0.951094 3.45634 1.05412 3.75724L7.75212 23.0182C7.75212 23.2437 7.84167 23.4599 8.00108 23.6193C8.16048 23.7787 8.37668 23.8682 8.60212 23.8682C8.82755 23.8682 9.04375 23.7787 9.20316 23.6193C9.36256 23.4599 9.45212 23.2437 9.45212 23.0182L12.8521 13.3962L22.4571 9.91124Z" stroke="#000001" stroke-linecap="round" stroke-linejoin="round"/>
</g>
<defs>
<clipPath id="clip0_1552_23900">
<rect width="23.8" height="23.8" fill="white" transform="translate(0.102112 0.64624)"/>
</clipPath>
</defs>
</svg>
