<svg width="25" height="24" viewBox="0 0 25 24" fill="none" xmlns="http://www.w3.org/2000/svg">
<g clip-path="url(#clip0_1552_23856)">
<path d="M10.7021 22.998H14.1021" stroke="black" stroke-linecap="round" stroke-linejoin="round"/>
<path d="M19.9547 8.44714C19.9547 6.44408 19.1589 4.52307 17.7425 3.10668C16.3261 1.69031 14.4051 0.894592 12.4021 0.894592C10.399 0.894592 8.47798 1.69031 7.06161 3.10668C5.64522 4.52307 4.8495 6.44408 4.8495 8.44714V15.9494C4.8495 16.7005 4.55111 17.4209 4.01997 17.952C3.48883 18.4833 2.95323 18.7816 2.20209 18.7816H22.6021C21.8509 18.7816 21.3154 18.4833 20.7841 17.952C20.253 17.4209 19.9547 16.7005 19.9547 15.9494V8.44714Z" stroke="black" stroke-linecap="round" stroke-linejoin="round"/>
</g>
<defs>
<clipPath id="clip0_1552_23856">
<rect width="23.8" height="23.8" fill="white" transform="translate(0.502075 0.0462646)"/>
</clipPath>
</defs>
</svg>
