<svg width="25" height="24" viewBox="0 0 25 24" fill="none" xmlns="http://www.w3.org/2000/svg">
<g clip-path="url(#clip0_1552_22265)">
<path d="M9.63429 3.97137L10.3653 2.08437C10.4886 1.76488 10.7055 1.49007 10.9876 1.29593C11.2697 1.10179 11.6038 0.99738 11.9463 0.996368H13.3403C13.6827 0.99738 14.0169 1.10179 14.299 1.29593C14.5811 1.49007 14.798 1.76488 14.9213 2.08437L15.6523 3.97137L18.1343 5.39937L20.1403 5.09337C20.4743 5.04803 20.8143 5.10302 21.117 5.25134C21.4197 5.39966 21.6714 5.63462 21.8403 5.92637L22.5203 7.11637C22.6945 7.41276 22.7748 7.75502 22.7505 8.09798C22.7263 8.44094 22.5986 8.76848 22.3843 9.03737L21.1433 10.6184V13.4744L22.4183 15.0554C22.6326 15.3243 22.7603 15.6518 22.7845 15.9948C22.8088 16.3377 22.7285 16.68 22.5543 16.9764L21.8743 18.1664C21.7054 18.4581 21.4537 18.6931 21.151 18.8414C20.8483 18.9897 20.5083 19.0447 20.1743 18.9994L18.1683 18.6934L15.6863 20.1214L14.9553 22.0084C14.832 22.3279 14.6151 22.6027 14.333 22.7968C14.0509 22.9909 13.7167 23.0954 13.3743 23.0964H11.9463C11.6038 23.0954 11.2697 22.9909 10.9876 22.7968C10.7055 22.6027 10.4886 22.3279 10.3653 22.0084L9.63429 20.1214L7.15229 18.6934L5.14629 18.9994C4.81227 19.0447 4.47231 18.9897 4.16961 18.8414C3.86691 18.6931 3.61514 18.4581 3.44629 18.1664L2.76629 16.9764C2.59204 16.68 2.51176 16.3377 2.53604 15.9948C2.56032 15.6518 2.68802 15.3243 2.90229 15.0554L4.14329 13.4744V10.6184L2.86829 9.03737C2.65402 8.76848 2.52632 8.44094 2.50204 8.09798C2.47776 7.75502 2.55804 7.41276 2.73229 7.11637L3.41229 5.92637C3.58114 5.63462 3.83291 5.39966 4.13561 5.25134C4.43831 5.10302 4.77827 5.04803 5.11229 5.09337L7.11829 5.39937L9.63429 3.97137Z" stroke="#000001" stroke-linecap="round" stroke-linejoin="round"/>
<path d="M12.6433 17.1464C15.4599 17.1464 17.7433 14.863 17.7433 12.0464C17.7433 9.22973 15.4599 6.94638 12.6433 6.94638C9.82664 6.94638 7.54329 9.22973 7.54329 12.0464C7.54329 14.863 9.82664 17.1464 12.6433 17.1464Z" stroke="#000001" stroke-linecap="round" stroke-linejoin="round"/>
<path d="M12.6433 6.94638V12.0464H17.7433" stroke="#000001" stroke-linecap="round" stroke-linejoin="round"/>
<path d="M12.6433 12.0464L9.03929 15.6504" stroke="#000001" stroke-linecap="round" stroke-linejoin="round"/>
</g>
<defs>
<clipPath id="clip0_1552_22265">
<rect width="23.8" height="23.8" fill="white" transform="translate(0.743286 0.146362)"/>
</clipPath>
</defs>
</svg>
