<svg width="25" height="25" viewBox="0 0 25 25" fill="none" xmlns="http://www.w3.org/2000/svg">
<g clip-path="url(#clip0_1552_21020)">
<path d="M5.44326 12.3462V7.87524C5.45654 6.99639 5.6431 6.1288 5.99226 5.32218C6.34141 4.51556 6.8463 3.78576 7.47799 3.1746C8.10968 2.56345 8.85575 2.08294 9.67346 1.76061C10.4912 1.43829 11.3645 1.28048 12.2433 1.29624V1.29624C13.1221 1.28048 13.9953 1.43829 14.8131 1.76061C15.6308 2.08294 16.3768 2.56345 17.0085 3.1746C17.6402 3.78576 18.1451 4.51556 18.4943 5.32218C18.8434 6.1288 19.03 6.99639 19.0433 7.87524V12.3462" stroke="currentcolor" stroke-linecap="round" stroke-linejoin="round"/>
<path d="M2.89326 9.79626H4.59326C4.81869 9.79626 5.03489 9.88582 5.1943 10.0452C5.35371 10.2046 5.44326 10.4208 5.44326 10.6463V15.7463C5.44326 15.9717 5.35371 16.1879 5.1943 16.3473C5.03489 16.5067 4.81869 16.5963 4.59326 16.5963H2.89326C2.44239 16.5963 2.00999 16.4172 1.69118 16.0983C1.37237 15.7795 1.19326 15.3471 1.19326 14.8963V11.4963C1.19326 11.0454 1.37237 10.613 1.69118 10.2942C2.00999 9.97537 2.44239 9.79626 2.89326 9.79626V9.79626Z" stroke="currentcolor" stroke-linecap="round" stroke-linejoin="round"/>
<path d="M21.5933 16.5962H19.8933C19.6678 16.5962 19.4516 16.5066 19.2922 16.3472C19.1328 16.1878 19.0433 15.9716 19.0433 15.7462V10.6462C19.0433 10.4208 19.1328 10.2046 19.2922 10.0451C19.4516 9.88574 19.6678 9.79619 19.8933 9.79619H21.5933C22.0441 9.79619 22.4765 9.9753 22.7953 10.2941C23.1142 10.6129 23.2933 11.0453 23.2933 11.4962V14.8962C23.2933 15.3471 23.1142 15.7795 22.7953 16.0983C22.4765 16.4171 22.0441 16.5962 21.5933 16.5962V16.5962Z" stroke="currentcolor" stroke-linecap="round" stroke-linejoin="round"/>
<path d="M15.6433 21.2713C16.545 21.2713 17.4098 20.9131 18.0474 20.2754C18.6851 19.6378 19.0433 18.773 19.0433 17.8713V14.0463" stroke="currentcolor" stroke-linecap="round" stroke-linejoin="round"/>
<path d="M15.6433 21.2712C15.6433 21.8348 15.4194 22.3753 15.0209 22.7738C14.6223 23.1724 14.0818 23.3962 13.5183 23.3962H10.9683C10.4047 23.3962 9.86417 23.1724 9.46566 22.7738C9.06715 22.3753 8.84326 21.8348 8.84326 21.2712C8.84326 20.7077 9.06715 20.1672 9.46566 19.7686C9.86417 19.3701 10.4047 19.1462 10.9683 19.1462H13.5183C14.0818 19.1462 14.6223 19.3701 15.0209 19.7686C15.4194 20.1672 15.6433 20.7077 15.6433 21.2712Z" stroke="currentcolor" stroke-linecap="round" stroke-linejoin="round"/>
</g>
<defs>
<clipPath id="clip0_1552_21020">
<rect width="23.8" height="23.8" fill="white" transform="translate(0.343262 0.446289)"/>
</clipPath>
</defs>
</svg>
